<?xml version="1.0" encoding="utf-8"?>
<!-- Generated by Mocodo 4.3.2 -->
<svg width="774" height="154" viewBox="0 0 774 154" xmlns="http://www.w3.org/2000/svg">
<rect x="0" y="0" width="774" height="154" fill="#f7f7f7" stroke="none" stroke-width="0"/>

<!-- Association ADMIN_MISSION -->
<g>
	<line x1="43" y1="77" x2="162" y2="77" stroke="#5aae61" stroke-width="2"/>
	<line x1="286" y1="77" x2="162" y2="77" stroke="#5aae61" stroke-width="2"/>
	<g>
		<path d="M201 52 a14 14 90 0 1 14 14 V77 h-106 V66 a14 14 90 0 1 14 -14" fill="#a6dba0" stroke="#a6dba0" stroke-width="0"/>
		<path d="M215 77 v11 a14 14 90 0 1 -14 14 H123 a14 14 90 0 1 -14 -14 V77 H106" fill="#d9f0d3" stroke="#d9f0d3" stroke-width="0"/>
		<rect x="109" y="52" width="106" height="50" fill="none" rx="14" stroke="#5aae61" stroke-width="2"/>
		<line x1="109" y1="77" x2="215" y2="77" stroke="#5aae61" stroke-width="1"/>
		<text x="117" y="69.75" fill="#000000" font-family="Verdana" font-size="12">Admin_Mission</text>
	</g>
	<text x="82" y="94" fill="#762a83" font-family="Verdana" font-size="12">0,N</text>
	<text x="221" y="94" fill="#762a83" font-family="Verdana" font-size="12">1,1</text>
</g>

<!-- Association MISSION_AT -->
<g>
	<line x1="499" y1="77" x2="397" y2="77" stroke="#5aae61" stroke-width="2"/>
	<line x1="286" y1="77" x2="397" y2="77" stroke="#5aae61" stroke-width="2"/>
	<g>
		<path d="M423 52 a14 14 90 0 1 14 14 V77 h-80 V66 a14 14 90 0 1 14 -14" fill="#a6dba0" stroke="#a6dba0" stroke-width="0"/>
		<path d="M437 77 v11 a14 14 90 0 1 -14 14 H371 a14 14 90 0 1 -14 -14 V77 H80" fill="#d9f0d3" stroke="#d9f0d3" stroke-width="0"/>
		<rect x="357" y="52" width="80" height="50" fill="none" rx="14" stroke="#5aae61" stroke-width="2"/>
		<line x1="357" y1="77" x2="437" y2="77" stroke="#5aae61" stroke-width="1"/>
		<text x="365" y="69.75" fill="#000000" font-family="Verdana" font-size="12">Mission_at</text>
	</g>
	<text x="442" y="94" fill="#762a83" font-family="Verdana" font-size="12">1,N</text>
	<text x="330" y="94" fill="#762a83" font-family="Verdana" font-size="12">1,N</text>
</g>

<!-- Association USER_SCANNED -->
<g>
	<line x1="729" y1="77" x2="611" y2="77" stroke="#5aae61" stroke-width="2"/>
	<line x1="499" y1="77" x2="611" y2="77" stroke="#5aae61" stroke-width="2"/>
	<g>
		<path d="M647 52 a14 14 90 0 1 14 14 V77 h-100 V66 a14 14 90 0 1 14 -14" fill="#a6dba0" stroke="#a6dba0" stroke-width="0"/>
		<path d="M661 77 v11 a14 14 90 0 1 -14 14 H575 a14 14 90 0 1 -14 -14 V77 H100" fill="#d9f0d3" stroke="#d9f0d3" stroke-width="0"/>
		<rect x="561" y="52" width="100" height="50" fill="none" rx="14" stroke="#5aae61" stroke-width="2"/>
		<line x1="561" y1="77" x2="661" y2="77" stroke="#5aae61" stroke-width="1"/>
		<text x="569" y="69.75" fill="#000000" font-family="Verdana" font-size="12">User_scanned</text>
	</g>
	<text x="666" y="94" fill="#762a83" font-family="Verdana" font-size="12">0,N</text>
	<text x="534" y="94" fill="#762a83" font-family="Verdana" font-size="12">0,N</text>
</g>

<!-- Entity ADMIN -->
<g>
	<g>
		<rect x="9" y="18" width="68" height="25" fill="#c2a5cf" stroke="none" stroke-width="0" opacity="1"/>
		<rect x="9" y="43" width="68" height="93" fill="#e7d4e8" stroke="none" stroke-width="0" opacity="1"/>
		<rect x="9" y="18" width="68" height="118" fill="none" stroke="#9970ab" stroke-width="2" opacity="1"/>
		<line x1="9" y1="43" x2="77" y2="43" stroke="#9970ab" stroke-width="1"/>
	</g>
	<text x="24" y="35.75" fill="#000000" font-family="Verdana" font-size="12">Admin</text>
	<text x="14" y="60.8" fill="#000000" font-family="Verdana" font-size="12">ref</text>
	<line x1="14" y1="63" x2="31" y2="63" stroke="#000000" stroke-width="1"/>
	<text x="14" y="77.8" fill="#000000" font-family="Verdana" font-size="12">name</text>
	<text x="14" y="94.8" fill="#000000" font-family="Verdana" font-size="12">email</text>
	<text x="14" y="111.8" fill="#000000" font-family="Verdana" font-size="12">password</text>
	<text x="14" y="128.8" fill="#000000" font-family="Verdana" font-size="12">role</text>
</g>

<!-- Entity MISSION -->
<g>
	<g>
		<rect x="247" y="9" width="78" height="25" fill="#c2a5cf" stroke="none" stroke-width="0" opacity="1"/>
		<rect x="247" y="34" width="78" height="111" fill="#e7d4e8" stroke="none" stroke-width="0" opacity="1"/>
		<rect x="247" y="9" width="78" height="136" fill="none" stroke="#9970ab" stroke-width="2" opacity="1"/>
		<line x1="247" y1="34" x2="325" y2="34" stroke="#9970ab" stroke-width="1"/>
	</g>
	<text x="264" y="26.75" fill="#000000" font-family="Verdana" font-size="12">Mission</text>
	<text x="252" y="51.8" fill="#000000" font-family="Verdana" font-size="12">ref</text>
	<line x1="252" y1="54" x2="269" y2="54" stroke="#000000" stroke-width="1"/>
	<text x="252" y="68.8" fill="#000000" font-family="Verdana" font-size="12">title</text>
	<text x="252" y="85.8" fill="#000000" font-family="Verdana" font-size="12">description</text>
	<text x="252" y="102.8" fill="#000000" font-family="Verdana" font-size="12">level</text>
	<text x="252" y="119.8" fill="#000000" font-family="Verdana" font-size="12">reward</text>
	<text x="252" y="136.8" fill="#000000" font-family="Verdana" font-size="12">active</text>
</g>

<!-- Entity SPOT -->
<g>
	<g>
		<rect x="469" y="18" width="60" height="25" fill="#c2a5cf" stroke="none" stroke-width="0" opacity="1"/>
		<rect x="469" y="43" width="60" height="93" fill="#e7d4e8" stroke="none" stroke-width="0" opacity="1"/>
		<rect x="469" y="18" width="60" height="118" fill="none" stroke="#9970ab" stroke-width="2" opacity="1"/>
		<line x1="469" y1="43" x2="529" y2="43" stroke="#9970ab" stroke-width="1"/>
	</g>
	<text x="485" y="35.75" fill="#000000" font-family="Verdana" font-size="12">Spot</text>
	<text x="474" y="60.8" fill="#000000" font-family="Verdana" font-size="12">ref</text>
	<line x1="474" y1="63" x2="491" y2="63" stroke="#000000" stroke-width="1"/>
	<text x="474" y="77.8" fill="#000000" font-family="Verdana" font-size="12">name</text>
	<text x="474" y="94.8" fill="#000000" font-family="Verdana" font-size="12">riddles</text>
	<text x="474" y="111.8" fill="#000000" font-family="Verdana" font-size="12">position</text>
	<text x="474" y="128.8" fill="#000000" font-family="Verdana" font-size="12">qr_code</text>
</g>

<!-- Entity USER -->
<g>
	<g>
		<rect x="693" y="26" width="72" height="25" fill="#c2a5cf" stroke="none" stroke-width="0" opacity="1"/>
		<rect x="693" y="51" width="72" height="77" fill="#e7d4e8" stroke="none" stroke-width="0" opacity="1"/>
		<rect x="693" y="26" width="72" height="102" fill="none" stroke="#9970ab" stroke-width="2" opacity="1"/>
		<line x1="693" y1="51" x2="765" y2="51" stroke="#9970ab" stroke-width="1"/>
	</g>
	<text x="715" y="43.75" fill="#000000" font-family="Verdana" font-size="12">User</text>
	<text x="698" y="68.8" fill="#000000" font-family="Verdana" font-size="12">ref</text>
	<line x1="698" y1="71" x2="715" y2="71" stroke="#000000" stroke-width="1"/>
	<text x="698" y="85.8" fill="#000000" font-family="Verdana" font-size="12">username</text>
	<text x="698" y="102.8" fill="#000000" font-family="Verdana" font-size="12">email</text>
	<text x="698" y="119.8" fill="#000000" font-family="Verdana" font-size="12">password</text>
</g>
</svg>